<?xml version="1.0" encoding="utf-8"?>
<!-- Svg Vector Icons : http://www.onlinewebfonts.com/icon -->
<!DOCTYPE svg PUBLIC "-//W3C//DTD SVG 1.1//EN" "http://www.w3.org/Graphics/SVG/1.1/DTD/svg11.dtd">
<svg version="1.1" xmlns="http://www.w3.org/2000/svg" xmlns:xlink="http://www.w3.org/1999/xlink" x="0px" y="0px" viewBox="0 0 1000 1000" enable-background="new 0 0 1000 1000" xml:space="preserve">
<metadata> Svg Vector Icons : http://www.onlinewebfonts.com/icon </metadata>
<g><path d="M413.2,272.4c-3.8,0-7.7-0.9-11.2-2.8c-6.2-3.3-10.7-9.1-12.3-16L342.2,39.2c-2.3-10.5,2.6-21.3,12.1-26.4c9.5-5.1,21.2-3.2,28.7,4.6c25.3,26.5,72.3,63.8,97.7,63.8c4.8,0,24.8-2.4,81.4-32.8c32-17.2,59.2-34.5,59.4-34.7c8.2-5.2,18.7-5,26.7,0.6c8,5.6,11.8,15.4,9.7,24.9l-47.7,214.4c-1.5,6.9-6,12.7-12.3,16c-6.2,3.3-13.6,3.6-20.2,1c-25.4-10.3-51.6-15.5-77.8-15.5c-26.2,0-52.4,5.2-77.8,15.5C419.3,271.8,416.3,272.4,413.2,272.4z M404.5,98.8L430.8,217c45.5-13.1,92.9-13.1,138.4,0L599,82.9c-4.6,2.6-9.3,5.2-14.2,7.8c-71.6,38.5-96.1,38.5-104.1,38.5C459,129.2,433.4,119,404.5,98.8z"/><path d="M903.3,990H96.7c-13.2,0-24-10.7-24-24c0-200.3,43-388.9,121.1-531.2c38.6-70.4,83.9-125.9,134.6-164.9c54-41.6,111.8-62.7,171.6-62.7c59.9,0,117.6,21.1,171.6,62.7c50.7,39,95.9,94.5,134.6,164.9C884.3,577.1,927.3,765.8,927.3,966C927.3,979.3,916.5,990,903.3,990z M120.9,942h758.2c-3.3-183.3-43.8-354.4-114.9-484.1C692.4,327.1,598.6,255.1,500,255.1s-192.4,72-264.1,202.8C164.7,587.6,124.2,758.7,120.9,942z"/><path d="M597.9,261c-4.5,0-9-1.2-13-3.9c-11.1-7.2-14.3-22-7.1-33.1c2.7-4.2,68-103.6,157.2-103.6c13.2,0,24,10.7,24,24s-10.7,24-24,24c-63,0-116.4,80.9-116.9,81.8C613.4,257.1,605.7,261,597.9,261z"/><path d="M661.1,267.6c-20.9,0-43.1-1.1-66.6-3.4c-13.2-1.3-22.8-13-21.5-26.2c1.3-13.2,13-22.8,26.2-21.5c96.1,9.4,151.5-3.9,181-16.7c30.5-13.2,39.6-28.4,39.7-28.5c-0.2,0.4-0.3,0.7-0.3,0.7l42.9,21.5c-2.2,4.5-15.5,27.8-56.2,47.3C768.6,258.6,720,267.6,661.1,267.6z"/><path d="M491,649.5c-42.9,0-77.8-34.9-77.8-77.8c0-42.9,34.9-77.8,77.8-77.8c42.9,0,77.8,34.9,77.8,77.8c0,13.2-10.7,24-24,24c-13.2,0-24-10.7-24-24c0-16.4-13.4-29.8-29.8-29.8c-16.4,0-29.8,13.4-29.8,29.8c0,16.4,13.4,29.8,29.8,29.8c13.2,0,24,10.7,24,24S504.3,649.5,491,649.5z"/><path d="M491,792.8c-13.2,0-24-10.7-24-24V733c0-13.2,10.7-24,24-24s24,10.7,24,24v35.8C515,782.1,504.3,792.8,491,792.8z"/><path d="M491,541.9c-13.2,0-24-10.7-24-24v-35.8c0-13.2,10.7-24,24-24s24,10.7,24,24v35.8C515,531.2,504.3,541.9,491,541.9z"/><path d="M491,757c-42.9,0-77.8-34.9-77.8-77.8c0-13.2,10.7-24,24-24c13.2,0,24,10.7,24,24c0,16.4,13.4,29.8,29.8,29.8c16.4,0,29.8-13.4,29.8-29.8c0-16.4-13.4-29.8-29.8-29.8c-13.2,0-24-10.7-24-24c0-13.2,10.7-24,24-24c42.9,0,77.8,34.9,77.8,77.8C568.8,722.1,533.9,757,491,757z"/></g>
</svg>