<?xml version="1.0" encoding="utf-8"?>
<!-- Svg Vector Icons : http://www.onlinewebfonts.com/icon -->
<!DOCTYPE svg PUBLIC "-//W3C//DTD SVG 1.1//EN" "http://www.w3.org/Graphics/SVG/1.1/DTD/svg11.dtd">
<svg version="1.1" xmlns="http://www.w3.org/2000/svg" xmlns:xlink="http://www.w3.org/1999/xlink" x="0px" y="0px" viewBox="0 0 1000 1000" enable-background="new 0 0 1000 1000" xml:space="preserve">
<metadata> Svg Vector Icons : http://www.onlinewebfonts.com/icon </metadata>
<g><g transform="translate(0.000000,511.000000) scale(0.100000,-0.100000)"><path d="M6508.1,4001.1L5500.9,2994l144.7-144.7l144.7-144.7l931.9,931.9l930,930l353.1-353.1l351.2-351.2l-135.1-135.1L8086.4,3594v-144.7v-144.7l100.3-102.3l100.3-102.3l-84.9-86.8l-84.9-86.8l-108,106.1l-108,106.1H7768h-135.1l-218-218l-216.1-216.1v-144.7v-142.8l100.3-102.3l100.3-102.3l-84.9-86.8l-84.9-86.8l-98.4,96.5l-98.4,96.5h-154.3h-154.4l-113.8-115.8l-113.8-115.8l142.8-144.7l142.8-144.7l40.5,38.6c23.2,21.2,50.2,38.6,59.8,38.6c9.6,0,61.7-42.5,113.8-96.5l94.6-96.5h146.6h144.7l227.7,227.7l225.7,225.7v154.4v152.4l-100.3,102.3l-100.3,102.3l65.6,67.5l65.6,67.5l108-106.1l108-106.1h142.8h144.7l225.7,225.7l227.7,227.7v154.4v152.4l-100.3,102.3l-100.3,102.3l138.9,140.8l138.9,138.9v144.7v146.6l-497.8,495.8l-497.8,495.9h-142.8h-144.7L6508.1,4001.1z"/><path d="M8954.6,3572.8l-144.7-144.7l328-328l328-328l-935.8-935.8l-935.8-935.8l144.7-144.7l144.7-144.7l1007.1,1007.2L9900,2627.4v144.7v144.7l-401.3,401.3l-399.4,399.4L8954.6,3572.8z"/><path d="M4383.8,3291.1c-57.9-9.6-158.2-40.5-221.9-69.5c-110-46.3-254.7-187.1-2004.6-1933.3C1119.3,252.3,247.2-631.4,220.2-677.7c-164-277.8-160.1-673.4,11.6-930c32.8-48.2,725.5-752.5,1539.7-1564.7C3048.7-4447.7,3268.6-4658,3359.3-4700.5c266.3-121.5,536.4-119.6,804.6,5.8c73.3,34.7,493.9,445.7,1960.3,1908.2C7150.6-1762,8016.9-884.1,8049.7-835.9c162.1,243.1,177.5,625.1,38.6,906.8c-32.8,61.7-470.8,515.2-1541.6,1586c-1393,1393-1508.8,1503-1624.6,1557c-69.5,32.8-181.4,67.5-250.8,77.2C4530.5,3314.3,4528.5,3314.3,4383.8,3291.1z M4690.6,2885.9c67.5-28.9,422.5-372.4,1549.3-1499.1C7071.5,557.2,7725.6-110.4,7754.5-160.6c71.4-119.6,71.4-266.3,0-385.9C7681.2-668,4007.6-4332,3915-4372.5c-88.7-42.5-231.5-42.5-320.3,0c-104.2,46.3-3021.4,2959.7-3073.5,3069.7c-48.2,98.4-52.1,245-7.7,335.7C532.7-932.4,1385.5-62.2,2410,966.2c1966.1,1968,1956.4,1960.3,2126.2,1960.3C4572.9,2926.5,4642.4,2907.2,4690.6,2885.9z"/><path d="M5607.1,900.6c-106.1-28.9-231.5-63.7-277.8-75.2l-84.9-23.2l79.1-81l81-81l-972.4-972.4l-970.5-970.5l-13.5,393.6c-9.6,272-7.7,411,7.7,449.6c11.6,32.8,100.3,137,194.9,233.5l175.6,175.6l90.7-9.6c61.7-5.8,111.9,1.9,154.4,23.2c235.4,123.5,144.7,499.7-121.5,499.7c-167.9,0-297.1-148.6-270.1-312.6l13.5-81l-192.9-196.8c-250.8-256.6-247-241.2-231.5-839.3c13.5-526.7,15.4-515.2-158.2-686.9l-113.8-113.8l-79.1,32.8c-337.6,135.1-692.7-158.2-617.4-511.3c44.4-208.4,218-345.4,436-345.4c194.9,0,355,106.1,422.5,281.7c36.7,98.4,30.9,256.6-15.4,349.2l-30.9,59.8l380.1,376.2c407.1,405.2,428.3,418.7,596.2,393.6c38.6-7.7,231.5-13.5,428.3-15.4c472.7-3.9,478.5-1.9,725.4,237.3l194.9,189.1l54-57.9c30.9-32.8,65.6-57.9,77.2-57.9c11.6,0,102.3,83,202.6,183.3l183.3,183.3l-192.9,192.9L5568.5-83.4l-192.9-192.9l-191-192.9l61.7-63.7l61.7-63.7L5124.7-778l-183.3-183.3l-158.2-7.7c-84.9-3.8-281.7,0-436,7.7l-279.8,13.5l731.2,731.2l731.2,731.2l81-81c46.3-44.4,83-75.2,83-67.5c0,9.6,117.7,459.2,146.7,559.5C5854,966.2,5846.3,966.2,5607.1,900.6z M2840.3-2049.5c67.5-69.5,71.4-135.1,9.6-206.4c-88.8-104.2-245-57.9-274,83c-9.6,52.1-1.9,71.4,46.3,121.5C2697.5-1976.2,2765.1-1976.2,2840.3-2049.5z"/></g></g>
</svg>