<?xml version="1.0" encoding="utf-8"?>
<!-- Svg Vector Icons : http://www.onlinewebfonts.com/icon -->
<!DOCTYPE svg PUBLIC "-//W3C//DTD SVG 1.1//EN" "http://www.w3.org/Graphics/SVG/1.1/DTD/svg11.dtd">
<svg version="1.1" xmlns="http://www.w3.org/2000/svg" xmlns:xlink="http://www.w3.org/1999/xlink" x="0px" y="0px" viewBox="0 0 1000 1000" enable-background="new 0 0 1000 1000" xml:space="preserve">
<metadata> Svg Vector Icons : http://www.onlinewebfonts.com/icon </metadata>
<g><g transform="translate(0.000000,511.000000) scale(0.100000,-0.100000)"><path d="M5089.7,4977.8c-33.2-13.7-84-60.5-109.4-101.6c-27.3-41-652.3-1165.9-1388.6-2497.9C2754,862.9,2252.1-64.8,2252.1-98c0-76.2,46.9-156.2,107.4-183.6c37.1-17.6,253.9-23.4,771.4-23.4c398.4,0,722.6-5.9,722.6-11.7c0-5.9-457-943.3-1017.5-2083.8C2086-3929.7,1816.5-4498,1808.7-4562.5c-11.7-107.4,37.1-179.7,140.6-214.8c58.6-19.5,80.1-17.6,138.7,13.7c82,43,5626.5,5792.5,5655.8,5864.8c27.3,70.3,3.9,162.1-54.7,216.8l-50.8,46.9l-1021.4,9.8l-1019.5,9.8l1208.9,1542.9c1531.1,1953,1382.7,1753.8,1382.7,1853.4c0,93.8-37.1,156.2-117.2,197.3C7989.9,5020.7,5187.4,5020.7,5089.7,4977.8z M7480.2,4495.4c-56.6-72.3-1990.1-2591.6-2382.6-3107.2c-142.6-187.5-164-267.5-97.6-365.2c68.3-99.6,33.2-95.7,1076.1-97.6c541,0,980.4-7.8,976.5-15.6c-7.8-23.4-4241.8-4398.1-4247.7-4390.3c-3.9,1.9,310.5,660.1,699.2,1458.8C4425.7-121.4,4408.1-162.5,4392.5-78.5c-7.8,35.2-35.2,89.9-60.5,119.1l-44.9,54.7l-730.4,9.8l-732.4,9.8l1222.6,2230.3l1222.5,2230.3l1138.6,2h1138.6L7480.2,4495.4z"/></g></g>
</svg>