<?xml version="1.0" encoding="utf-8"?>
<!-- Svg Vector Icons : http://www.onlinewebfonts.com/icon -->
<!DOCTYPE svg PUBLIC "-//W3C//DTD SVG 1.1//EN" "http://www.w3.org/Graphics/SVG/1.1/DTD/svg11.dtd">
<svg version="1.1" xmlns="http://www.w3.org/2000/svg" xmlns:xlink="http://www.w3.org/1999/xlink" x="0px" y="0px" viewBox="0 0 1000 1000" enable-background="new 0 0 1000 1000" xml:space="preserve">
<metadata> Svg Vector Icons : http://www.onlinewebfonts.com/icon </metadata>
<g><g transform="translate(0.000000,512.000000) scale(0.100000,-0.100000)"><path d="M7652.2,4986.3C7581.3,4942.2,204.3-2231.8,141.1-2318c-49.8-68.9-53.6-128.3-15.3-201.1c34.5-63.2,2187.1-2212,2246.4-2242.6c59.4-30.6,122.6-24.9,180,13.4c90,61.3,7296.6,7476.6,7327.3,7539.8c19.2,40.2,24.9,82.3,17.2,116.8c-9.6,38.3-319.8,362-1013.1,1057.1c-549.6,551.6-1022.7,1015-1051.4,1030.3C7763.3,5032.2,7723,5030.3,7652.2,4986.3z M7713.5,4199.1c139.8-134.1,168.6-153.2,229.8-153.2c49.8,0,82.4,15.3,126.4,59.4l59.4,59.4l649.2-649.2c356.2-356.2,645.4-653,643.5-658.8c-3.8-7.7-1572.3-1622.1-3489.3-3588.9L2448.8-4307.8l-934.6,934.6l-936.5,936.5l300.7,300.7l300.7,300.7l193.4-187.7c212.6-206.8,271.9-235.5,371.5-185.8c105.3,55.5,143.6,153.2,95.8,247.1c-11.5,23-99.6,122.6-195.3,220.2l-176.2,176.2l254.7,254.7l252.8,252.8l367.7-367.7c203-201.1,388.8-375.4,411.7-386.9c130.2-65.1,273.9,24.9,273.9,172.4c0,80.4-5.7,86.2-383,467.3l-383,384.9l245.1,243.2c136,134.1,254.7,243.2,264.3,243.2s74.7-57.4,141.7-126.4c162.8-164.7,260.5-237.5,327.5-237.5c72.8,0,189.6,111.1,189.6,180c0,80.4-28.7,122.6-208.7,304.5L3057.8-12.2l256.6,250.9l256.6,249l356.2-354.3C4122.6-62,4302.7-230.5,4325.6-242c168.5-86.2,337.1,91.9,247.1,262.4c-15.3,28.7-183.9,206.8-373.4,396.4l-346.6,344.7l91.9,91.9c49.8,51.7,166.6,162.8,258.5,247.1l168.5,155.1l157-153.2c229.8-226,289.2-245.1,406-130.2c114.9,116.8,95.7,174.3-132.1,407.9L4647.4,1541l258.5,245.1l258.5,247l365.8-363.9c358.1-354.3,367.7-362,446.2-362c147.5,0,237.5,145.6,172.4,273.9c-11.5,23-176.2,197.3-365.8,388.8l-342.8,344.7l260.4,247.1l260.5,245.1l147.5-143.6c159-157,204.9-187.7,277.7-187.7c101.5,0,203,139.8,176.2,243.2c-5.7,28.7-82.3,122.6-168.5,210.7l-155.1,159l258.5,247.1l256.6,247.1l356.2-352.4c348.5-346.6,356.2-352.4,436.7-352.4c153.2,0,239.4,145.6,166.6,283.4c-15.3,28.7-174.3,197.3-352.4,375.4l-325.6,323.7l250.9,245.1c139.8,136,256.6,245.1,260.5,247.1C7550.7,4352.3,7625.4,4283.4,7713.5,4199.1z"/></g></g>
</svg>