<?xml version="1.0" encoding="utf-8"?>
<!-- Svg Vector Icons : http://www.onlinewebfonts.com/icon -->
<!DOCTYPE svg PUBLIC "-//W3C//DTD SVG 1.1//EN" "http://www.w3.org/Graphics/SVG/1.1/DTD/svg11.dtd">
<svg version="1.1" xmlns="http://www.w3.org/2000/svg" xmlns:xlink="http://www.w3.org/1999/xlink" x="0px" y="0px" viewBox="0 0 1000 1000" enable-background="new 0 0 1000 1000" xml:space="preserve">
<metadata> Svg Vector Icons : http://www.onlinewebfonts.com/icon </metadata>
<g><g transform="translate(0.000000,511.000000) scale(0.100000,-0.100000)"><path d="M4861.1,4798c-242.1-42-308.1-60-434.1-110c-432.1-180-768.2-574.1-880.2-1034.2c-68-278.1-34-670.2,80-928.2l48-108l-402.1-46c-652.2-72-1032.2-152-1250.3-260.1c-122-62-222.1-160-222.1-220.1c0-18-382.1-1174.3-850.2-2568.6C396.1-2129.6,100-3041.8,100-3093.8c0-294.1,470.1-614.2,1316.3-898.2c902.2-300.1,2098.5-520.1,3174.8-580.1c1508.4-86,3906.9,386.1,4869.2,958.2c174,104,352.1,264.1,404.1,368.1c30,58,40,106,34,182.1c-12,130-1716.4,5217.3-1768.4,5277.3c-140,152-594.1,270.1-1400.3,358.1l-400.1,44l46,114c160,398.1,154,818.2-16,1196.3c-184.1,410.1-576.2,734.2-1004.3,834.2C5221.2,4790,4943.2,4812.1,4861.1,4798z M5283.2,4337.9c270.1-80,528.1-284.1,652.2-520.1c378.1-714.2-130-1568.4-930.2-1568.4c-292.1,0-550.1,106-754.2,310.1c-416.1,416.1-416.1,1084.3,0,1500.4c132,132,304.1,234.1,472.1,278.1C4869.1,4377.9,5147.2,4377.9,5283.2,4337.9z M4086.9,2131.4c418.1-310.1,918.2-394.1,1394.3-232.1c164,56,280.1,118,436.1,234.1l106,78l234.1-22c626.1-58,1166.3-140,1420.3-214.1c90-24,112-40,132-92c14-36,398.1-1166.3,852.2-2512.6l826.2-2450.6l-78-68C9190.2-3339.9,8408-3636,7591.8-3832c-942.2-228.1-1626.4-310.1-2590.6-310.1c-822.2,0-1254.3,40-2046.5,192C1976.4-3764,892.2-3391.9,610.1-3145.9l-80,68l828.2,2478.6c456.1,1364.3,836.2,2494.6,846.2,2512.6c20,42,156,82,496.1,144c260.1,48,894.2,124,1236.3,148C3962.9,2207.4,4026.9,2175.4,4086.9,2131.4z"/><path d="M2560.6,1575.3c-76-40-120-108-120-186s70-174,144-196c36-12,292.1-50,566.1-82c1572.4-190,2178.5-188,3790.9,10c484.1,60,530.1,72,582.1,156c46,76,48,134,6,214.1c-56,110-124,122-456.1,78c-520.1-70-1212.3-138-1646.4-164c-336.1-18-516.1-18-848.2,0c-504.1,30-1534.4,136-1888.4,196.1C2654.6,1607.3,2602.6,1597.3,2560.6,1575.3z"/><path d="M3628.8-339.2c-126-56-128-72-128-1040.3c0-960.2,2-982.2,118-1040.2c32-18,78-32,102-32c74,0,162,60,192.1,130c16,40,28,136,28,226.1v156.1l68,34l68,32l164-248.1c90-136,180-262.1,200-280.1c20-18,74-38,118-44c72-10,88-4,152,60c114,114,102,176.1-90,464.1l-160,240.1l128,64c152,76,192,126,192,236.1c-2,120-90,210-208,210c-30,0-178-62-332.1-140c-154-76-284.1-140-290.1-140c-6,0-10,212.1-10,472.1c0,530.1-10,580.1-130,636.2C3730.9-305.2,3708.9-305.2,3628.8-339.2z"/><path d="M5645.3-1209.4c-186-64-356.1-242.1-406.1-428.1c-32-122-14-346.1,40-450.1c134-264.1,450.1-418.1,708.2-348.1l74,20v-170c0-160-4-172-58-228c-86-86-202-82-294,10c-52,52-68,84-68,142c0,98-106,210-200,210c-140,0-218.1-84-220-234.1c0-148,66-308.1,172-416.1c198-206,484.1-256.1,736.2-132c148,72,236.1,164,310.1,322.1l52,110l6,700.2c8,724.2,0,812.2-74,878.2c-56,50-168,62-242.1,26c-54-28-70-28-144-2C5927.4-1161.4,5773.3-1165.4,5645.3-1209.4z M6007.4-1671.5c148-164-28-418.1-232-332.1c-74,30-134,118-134,192c0,72,60,162.1,126,192.1C5855.4-1581.5,5941.4-1599.5,6007.4-1671.5z"/></g></g>
</svg>