<?xml version="1.0" encoding="utf-8"?>
<!-- Svg Vector Icons : http://www.onlinewebfonts.com/icon -->
<!DOCTYPE svg PUBLIC "-//W3C//DTD SVG 1.1//EN" "http://www.w3.org/Graphics/SVG/1.1/DTD/svg11.dtd">
<svg version="1.1" xmlns="http://www.w3.org/2000/svg" xmlns:xlink="http://www.w3.org/1999/xlink" x="0px" y="0px" viewBox="0 0 1000 1000" enable-background="new 0 0 1000 1000" xml:space="preserve">
<metadata> Svg Vector Icons : http://www.onlinewebfonts.com/icon </metadata>
<g><path d="M500,10C229.8,10,10,229.8,10,500c0,270.2,219.8,490,490,490c270.2,0,490-219.8,490-490C990,229.8,770.2,10,500,10z M533,950.6v-45.4h-66v45.4C243.9,934.4,65.6,756,49.3,533h45.5v-66H49.3C65.6,244,243.9,65.6,467,49.4v45.4h66V49.4C756.1,65.6,934.4,244,950.6,467h-45.5v66h45.5C934.4,756,756.1,934.4,533,950.6z"/><path d="M850.4,744.7L567.2,486.4c0.8-3.6,1.4-7.3,1.4-11.2c0-8.6-2.4-16.6-6.2-23.6l119.2-177.2L526.9,426.1c-2.7-0.5-5.4-0.8-8.3-0.8c-27.6,0-49.9,22.3-49.9,50c0,27.6,22.4,49.9,49.9,49.9c1,0,1.8-0.2,2.8-0.3L850.4,744.7z"/></g>
</svg>