<?xml version="1.0" encoding="utf-8"?>
<!-- Svg Vector Icons : http://www.onlinewebfonts.com/icon -->
<!DOCTYPE svg PUBLIC "-//W3C//DTD SVG 1.1//EN" "http://www.w3.org/Graphics/SVG/1.1/DTD/svg11.dtd">
<svg version="1.1" xmlns="http://www.w3.org/2000/svg" xmlns:xlink="http://www.w3.org/1999/xlink" x="0px" y="0px" viewBox="0 0 1000 1000" enable-background="new 0 0 1000 1000" xml:space="preserve">
<metadata> Svg Vector Icons : http://www.onlinewebfonts.com/icon </metadata>
<g><g transform="translate(0.000000,511.000000) scale(0.100000,-0.100000)"><path d="M2015.7,4982.8c-295.6-58.6-474.1-290-474.1-616.4c0-220.3,379.3-8127.3,404.4-8369.9c27.9-315.2,223.1-596.9,496.4-719.6l145-66.9H5000h2412.5l145,66.9c170.1,75.3,354.2,262.2,429.5,435.1c30.7,69.7,61.4,203.6,69.7,298.4c22.3,281.7,401.6,8155.1,401.6,8353.2c0,122.7-16.7,212-55.8,284.5c-78.1,159-259.4,301.2-423.9,334.7C7808.6,5019.1,2202.6,5019.1,2015.7,4982.8z M7987,4542.1c83.7-66.9,97.6,404.4-145-4574c-212-4381.6-192.5-4150.1-371-4278.4l-86.4-61.4H4997.2H2609.8l-97.6,75.3c-55.8,41.8-114.3,117.1-131.1,167.3c-16.7,50.2-117.1,1899.3-223.1,4108.3c-108.8,2208.9-203.6,4119.4-212,4244.9c-16.7,220.3-13.9,234.3,53,301.2l69.7,69.7h2925.7C7839.2,4595.1,7922.9,4592.3,7987,4542.1z"/><path d="M3217.8,3295.4c-72.5-92-75.3-181.3-5.6-265c53-66.9,58.6-66.9,716.8-75.3c714-8.4,803.2,5.6,850.7,125.5c33.5,89.2,5.6,195.2-66.9,245.4c-50.2,33.5-186.9,41.8-747.5,41.8h-691.7L3217.8,3295.4z"/><path d="M3307,1730.8c-75.3-13.9-147.8-108.8-147.8-192.5c0-33.4,25.1-92,58.6-133.9l55.8-72.5H3982h708.4l55.8,72.5c33.5,41.8,58.6,92,58.6,111.6c0,80.9-69.7,178.5-147.8,206.4C4576.1,1750.3,3443.7,1755.9,3307,1730.8z"/><path d="M3229,35c-83.7-80.9-89.3-178.5-16.7-267.8l53-66.9h1121.2h1121.2l53,66.9c69.7,83.7,66.9,172.9-5.6,265l-55.8,72.5H4397.6H3295.9L3229,35z"/><path d="M3307-1532.4c-75.3-13.9-147.8-108.8-147.8-192.5c0-33.4,25.1-92,58.6-133.9l55.8-72.5H3982h708.4l55.8,72.5c33.5,41.8,58.6,92,58.6,111.6c0,80.9-69.7,178.5-147.8,206.4C4576.1-1512.9,3443.7-1507.3,3307-1532.4z"/><path d="M3229-3228.1c-83.7-80.9-89.3-178.5-16.7-267.8l53-66.9h714c638.7,0,716.8,5.6,761.4,47.4c72.5,72.5,61.4,239.9-16.7,304c-58.6,47.4-122.7,53-747.5,53h-680.5L3229-3228.1z"/></g></g>
</svg>